<svg width="24" height="24" viewBox="0 0 24 24" fill="none" xmlns="http://www.w3.org/2000/svg">
<path d="M5.05938 4.35693C5.05884 4.35693 5.05823 4.35693 5.0577 4.35693C4.86854 4.35693 4.69063 4.43067 4.55628 4.56468C4.42046 4.70017 4.34564 4.88057 4.34564 5.07262V15.8043C4.34564 16.1978 4.66706 16.5188 5.06221 16.5198C6.72807 16.5237 9.51904 16.8709 11.4444 18.8858V7.65485C11.4444 7.52145 11.4104 7.39613 11.346 7.29242C9.76578 4.74751 6.72901 4.36084 5.05938 4.35693Z" fill="#937DE2"/>
<path d="M19.6543 15.8043V5.07262C19.6543 4.88057 19.5795 4.70017 19.4437 4.56468C19.3093 4.43067 19.1313 4.35693 18.9423 4.35693C18.9417 4.35693 18.9411 4.35693 18.9406 4.35693C17.271 4.36091 14.2343 4.74757 12.6539 7.29249C12.5896 7.39619 12.5556 7.52151 12.5556 7.65491V18.8858C14.481 16.8709 17.272 16.5237 18.9378 16.5198C19.3329 16.5188 19.6543 16.1978 19.6543 15.8043Z" fill="#937DE2"/>
<path d="M21.2844 6.83179H20.7655V15.8042C20.7655 16.809 19.9468 17.6284 18.9405 17.6308C17.5275 17.6342 15.1976 17.9105 13.5476 19.4722C16.4013 18.7735 19.4097 19.2277 21.1242 19.6184C21.3382 19.6671 21.5595 19.6168 21.731 19.4801C21.9019 19.3437 21.9999 19.1399 21.9999 18.9211V7.54734C22 7.1528 21.6789 6.83179 21.2844 6.83179Z" fill="#937DE2"/>
<path d="M3.23448 15.8042V6.83179H2.71556C2.32108 6.83179 2 7.1528 2 7.54734V18.9209C2 19.1397 2.09805 19.3435 2.26896 19.4799C2.44034 19.6165 2.66135 19.6671 2.87576 19.6182C4.59024 19.2274 7.59865 18.7733 10.4523 19.472C8.80229 17.9104 6.47246 17.6341 5.05946 17.6308C4.0532 17.6284 3.23448 16.809 3.23448 15.8042Z" fill="#937DE2"/>
</svg>
